<svg xmlns="http://www.w3.org/2000/svg" viewBox="0 0 512 768" width="512" height="768">
  <!-- Maxi (2 anios) - pose base: astronauta valiente, mano en la cadera -->
  <defs>
    <radialGradient id="brillo_estrella" cx="50%" cy="50%" r="50%">
      <stop offset="0%" stop-color="#FFE38A" stop-opacity="0.9"/>
      <stop offset="100%" stop-color="#FFE38A" stop-opacity="0"/>
    </radialGradient>
  </defs>

  <!-- sombra en el suelo -->
  <ellipse cx="256" cy="708" rx="118" ry="17" fill="#2B3350" opacity="0.12"/>

  <!-- brazo izquierdo (lado izquierdo del que mira): colgando -->
  <g stroke-linecap="round" fill="none">
    <path d="M 196 352 L 158 462" stroke="#2B3350" stroke-width="44"/>
    <path d="M 196 352 L 158 462" stroke="#F7F9FC" stroke-width="32"/>
    <path d="M 168 430 L 178 434" stroke="#3E77CC" stroke-width="30"/>
  </g>
  <circle cx="155" cy="470" r="21" fill="#F7F9FC" stroke="#2B3350" stroke-width="6"/>

  <!-- brazo derecho: mano en la cadera -->
  <g stroke-linecap="round" stroke-linejoin="round" fill="none">
    <path d="M 316 352 L 366 412 L 336 468" stroke="#2B3350" stroke-width="44"/>
    <path d="M 316 352 L 366 412 L 336 468" stroke="#F7F9FC" stroke-width="32"/>
    <path d="M 356 424 L 350 436" stroke="#3E77CC" stroke-width="30"/>
  </g>
  <circle cx="334" cy="474" r="21" fill="#F7F9FC" stroke="#2B3350" stroke-width="6"/>

  <!-- piernas -->
  <g stroke-linecap="round" fill="none">
    <path d="M 218 505 L 218 622" stroke="#2B3350" stroke-width="50"/>
    <path d="M 218 505 L 218 622" stroke="#F7F9FC" stroke-width="38"/>
    <path d="M 294 505 L 294 622" stroke="#2B3350" stroke-width="50"/>
    <path d="M 294 505 L 294 622" stroke="#F7F9FC" stroke-width="38"/>
  </g>
  <!-- rodilleras -->
  <circle cx="218" cy="572" r="17" fill="#3E77CC" stroke="#2B3350" stroke-width="5"/>
  <circle cx="294" cy="572" r="17" fill="#3E77CC" stroke="#2B3350" stroke-width="5"/>
  <circle cx="213" cy="567" r="6" fill="#6FA8E8"/>
  <circle cx="289" cy="567" r="6" fill="#6FA8E8"/>

  <!-- botas -->
  <g>
    <rect x="186" y="616" width="66" height="62" rx="16" fill="#F7F9FC" stroke="#2B3350" stroke-width="6"/>
    <rect x="186" y="658" width="66" height="20" rx="10" fill="#3E77CC" stroke="#2B3350" stroke-width="5"/>
    <rect x="196" y="632" width="46" height="10" rx="5" fill="#6FD6E8"/>
    <rect x="260" y="616" width="66" height="62" rx="16" fill="#F7F9FC" stroke="#2B3350" stroke-width="6"/>
    <rect x="260" y="658" width="66" height="20" rx="10" fill="#3E77CC" stroke="#2B3350" stroke-width="5"/>
    <rect x="270" y="632" width="46" height="10" rx="5" fill="#6FD6E8"/>
  </g>

  <!-- torso -->
  <path d="M 198 330 L 314 330 Q 334 330 336 352 L 344 502 L 168 502 L 176 352 Q 178 330 198 330 Z"
        fill="#F7F9FC" stroke="#2B3350" stroke-width="6"/>
  <!-- franjas azules de hombros -->
  <path d="M 198 332 L 240 332 L 232 374 L 184 374 Z" fill="#3E77CC"/>
  <path d="M 314 332 L 272 332 L 280 374 L 328 374 Z" fill="#3E77CC"/>
  <!-- estrella del pecho con brillo -->
  <circle cx="256" cy="408" r="62" fill="url(#brillo_estrella)"/>
  <g transform="translate(256,408)">
    <polygon points="0,-46 11.2,-15.4 43.7,-14.2 18.1,5.9 27,37.2 0,19 -27,37.2 -18.1,5.9 -43.7,-14.2 -11.2,-15.4"
             fill="#FFCB3D" stroke="#2B3350" stroke-width="5" stroke-linejoin="round"/>
    <polygon points="0,-24 5.9,-8.1 22.9,-7.4 9.5,3.1 14.1,19.5 0,10 -14.1,19.5 -9.5,3.1 -22.9,-7.4 -5.9,-8.1"
             fill="#FFE38A"/>
  </g>

  <!-- cinturon con insignia de dinosaurio -->
  <rect x="168" y="486" width="176" height="28" rx="13" fill="#3E77CC" stroke="#2B3350" stroke-width="5"/>
  <circle cx="256" cy="500" r="21" fill="#EAF1FF" stroke="#2B3350" stroke-width="5"/>
  <g transform="translate(256,501)" fill="#55B26B">
    <ellipse cx="0" cy="4" rx="11" ry="6"/>
    <circle cx="10" cy="-1" r="4.5"/>
    <path d="M -11 4 L -17 -1 L -8 0 Z"/>
    <path d="M -7 -1 L -4 -8 L -1 -1 Z"/>
    <path d="M -1 -1 L 2 -8 L 5 -1 Z"/>
  </g>

  <!-- cuello -->
  <rect x="216" y="308" width="80" height="26" rx="12" fill="#C9D6EA" stroke="#2B3350" stroke-width="5"/>

  <!-- cabeza -->
  <circle cx="256" cy="215" r="98" fill="#F2C29B" stroke="#2B3350" stroke-width="6"/>
  <!-- orejas -->
  <circle cx="160" cy="222" r="14" fill="#F2C29B" stroke="#2B3350" stroke-width="5"/>
  <circle cx="352" cy="222" r="14" fill="#F2C29B" stroke="#2B3350" stroke-width="5"/>
  <!-- pelo castanio oscuro con mechones -->
  <path d="M 158 218 Q 152 128 226 112 Q 250 92 270 110 Q 344 118 354 218
           Q 344 196 322 192 Q 330 176 314 168 Q 308 182 290 178 Q 296 162 280 156 Q 270 172 250 170
           Q 252 152 236 150 Q 232 168 212 172 Q 210 156 196 160 Q 200 178 184 188 Q 170 196 158 218 Z"
        fill="#4A3226" stroke="#2B3350" stroke-width="6" stroke-linejoin="round"/>
  <!-- ojos grandes -->
  <ellipse cx="218" cy="228" rx="16" ry="21" fill="#FFFFFF" stroke="#2B3350" stroke-width="4"/>
  <ellipse cx="294" cy="228" rx="16" ry="21" fill="#FFFFFF" stroke="#2B3350" stroke-width="4"/>
  <circle cx="220" cy="231" r="9" fill="#5B3A21"/>
  <circle cx="292" cy="231" r="9" fill="#5B3A21"/>
  <circle cx="222" cy="234" r="4.5" fill="#2B1B10"/>
  <circle cx="290" cy="234" r="4.5" fill="#2B1B10"/>
  <circle cx="217" cy="226" r="3" fill="#FFFFFF"/>
  <circle cx="287" cy="226" r="3" fill="#FFFFFF"/>
  <!-- cejas -->
  <path d="M 202 200 Q 218 192 234 200" fill="none" stroke="#4A3226" stroke-width="7" stroke-linecap="round"/>
  <path d="M 278 200 Q 294 192 310 200" fill="none" stroke="#4A3226" stroke-width="7" stroke-linecap="round"/>
  <!-- nariz -->
  <path d="M 250 254 Q 256 260 262 254" fill="none" stroke="#D99A6C" stroke-width="6" stroke-linecap="round"/>
  <!-- sonrisa abierta -->
  <path d="M 226 272 Q 256 304 286 272 Q 256 284 226 272 Z" fill="#8A4436" stroke="#2B3350" stroke-width="4" stroke-linejoin="round"/>
  <path d="M 232 274 Q 256 282 280 274 L 276 270 Q 256 276 236 270 Z" fill="#FFFFFF"/>
  <!-- mejillas -->
  <ellipse cx="184" cy="262" rx="13" ry="9" fill="#F79FAE" opacity="0.55"/>
  <ellipse cx="328" cy="262" rx="13" ry="9" fill="#F79FAE" opacity="0.55"/>

  <!-- casco burbuja (encima de todo) -->
  <circle cx="256" cy="200" r="150" fill="#BEDCFF" fill-opacity="0.14" stroke="#9CC4EE" stroke-width="7"/>
  <path d="M 148 128 Q 196 66 268 72" fill="none" stroke="#FFFFFF" stroke-width="13" stroke-linecap="round" opacity="0.55"/>
  <!-- estrellita antena -->
  <line x1="256" y1="50" x2="256" y2="26" stroke="#2B3350" stroke-width="6" stroke-linecap="round"/>
  <g transform="translate(256,14) scale(0.32)">
    <polygon points="0,-46 11.2,-15.4 43.7,-14.2 18.1,5.9 27,37.2 0,19 -27,37.2 -18.1,5.9 -43.7,-14.2 -11.2,-15.4"
             fill="#FFCB3D" stroke="#2B3350" stroke-width="10" stroke-linejoin="round"/>
  </g>
</svg>
